<svg xmlns="http://www.w3.org/2000/svg" viewBox="0 0 512 512">
  <defs>
    <linearGradient id="gold" x1="0%" y1="0%" x2="100%" y2="100%">
      <stop offset="0%" stop-color="#FFD700"/>
      <stop offset="50%" stop-color="#FFF7CC"/>
      <stop offset="100%" stop-color="#D4AF37"/>
    </linearGradient>
    <filter id="glow" x="-20%" y="-20%" width="140%" height="140%">
      <feGaussianBlur stdDeviation="4" result="blur"/>
      <feMerge>
        <feMergeNode in="blur"/>
        <feMergeNode in="SourceGraphic"/>
      </feMerge>
    </filter>
  </defs>
  <rect width="512" height="512" rx="96" fill="#0F1226"/>
  <g transform="translate(256,256)" filter="url(#glow)">
    <g transform="translate(-90,-90)">
      <path d="M 40 10 L 170 10 C 180 10, 185 18, 185 28 L 185 85 C 185 115, 160 140, 130 155 L 105 170 L 130 185 C 160 200, 185 225, 185 255 L 185 312 C 185 322, 180 330, 170 330 L 40 330 C 30 330, 25 322, 25 312 L 25 28 C 25 18, 30 10, 40 10 Z" fill="url(#gold)"/>
      <circle cx="105" cy="170" r="22" fill="#0F1226"/>
      <path d="M 88 153 L 105 170 L 122 153" stroke="#0F1226" stroke-width="10" stroke-linecap="round" stroke-linejoin="round" fill="none"/>
    </g>
    <g transform="matrix(0.9,-0.9,0.9,0.9,105,-35)" opacity="0.12">
      <path d="M 40 10 L 170 10 C 180 10, 185 18, 185 28 L 185 85 C 185 115, 160 140, 130 155 L 105 170 L 130 185 C 160 200, 185 225, 185 255 L 185 312 C 185 322, 180 330, 170 330 L 40 330 C 30 330, 25 322, 25 312 L 25 28 C 25 18, 30 10, 40 10 Z" fill="white"/>
    </g>
  </g>
</svg>