<?xml version="1.0" encoding="UTF-8"?>
<!-- Created with Grafika (https://www.grafika.cc/) -->
<svg xmlns="http://www.w3.org/2000/svg" xmlns:svg="http://www.w3.org/2000/svg" xmlns:xlink="http://www.w3.org/1999/xlink" width="1024" height="1024" viewBox="0 0 8379.65 8379.65" preserveAspectRatio="xMidYMid meet">
	<defs>
		<clipPath id="mask_1">
			<rect x="-4184.12" y="-4184.12" width="8368.23" height="8368.23" />
		</clipPath>
		<clipPath id="mask_2">
			<rect x="1033.46" y="850.98" width="4775.88" height="4775.88" />
		</clipPath>
	<radialGradient id="fadeGradient" cx="0.5" cy="0.5" r="0.5">
		<stop offset="0%" stop-color="white" stop-opacity="1"/>
		<stop offset="65%" stop-color="white" stop-opacity="1"/>
		<stop offset="100%" stop-color="white" stop-opacity="0"/>
	</radialGradient>
	<mask id="fadeMask">
		<rect width="8379.65" height="8379.65" fill="url(#fadeGradient)"/>
	</mask>
	</defs><g mask="url(#fadeMask)">
	<g id="Frame2" transform="matrix(0.0013658262323588133, -0.9999986290931702, 0.9999986290931702, 0.0013658262323588133, 4189.82568359375, 4189.82568359375)" clip-path="url(#mask_1)" />
	<rect transform="matrix(0.9999105334281921, -0.013364641927182674, 0.013364641927182674, 0.9999105334281921, 1983.883056640625, 3626.732666015625)" x="-331.28" y="-1114.67" width="662.56" height="2229.34" style="fill:#88FF5F;" />
	<rect transform="matrix(0.6191802024841309, -0.7852482795715332, 0.7852482795715332, 0.6191802024841309, 3109.87060546875, 6500.5595703125)" x="-261.62" y="-581.18" width="523.24" height="1162.35" style="fill:#88FF5F;" />
	<rect transform="matrix(0.7071064710617065, -0.7071064710617065, 0.7071064710617065, 0.7071064710617065, 2581.61572265625, 6014.37158203125)" x="-272.74" y="-325.95" width="545.47" height="651.9" style="fill:#88FF5F;" />
	<rect transform="matrix(0.7136263251304626, -0.7005261182785034, 0.7005261182785034, 0.7136263251304626, 2550.814453125, 5879.86767578125)" x="-272.74" y="-325.95" width="545.47" height="651.9" style="fill:#88FF5F;" />
	<rect transform="matrix(0.7538926005363464, -0.6569966673851013, 0.6569966673851013, 0.7538926005363464, 2421.29052734375, 5833.85791015625)" x="-272.74" y="-325.95" width="545.47" height="651.9" style="fill:#88FF5F;" />
	<rect transform="matrix(0.7538926005363464, -0.6569966673851013, 0.6569966673851013, 0.7538926005363464, 2421.29052734375, 5833.85791015625)" x="-272.74" y="-325.95" width="545.47" height="651.9" style="fill:#88FF5F;" />
	<rect transform="matrix(0.9552799463272095, -0.2957005798816681, 0.2957005798816681, 0.9552799463272095, 2106.07958984375, 5120.61767578125)" x="-272.74" y="-612.49" width="545.47" height="1224.98" style="fill:#88FF5F;" />
	<rect transform="matrix(0.9550778269767761, -0.296351820230484, 0.296351820230484, 0.9550778269767761, 2011.48681640625, 5045.662109375)" x="-276.8" y="-364.26" width="553.59" height="728.52" style="fill:#88FF5F;" />
	<rect transform="matrix(0.8718016743659973, -0.4898570477962494, 0.4898570477962494, 0.8718016743659973, 2108.14453125, 5540.900390625)" x="-172.67" y="-364.26" width="345.35" height="728.52" style="fill:#88FF5F;" />
	<rect transform="matrix(0.8140147924423218, -0.5808431506156921, 0.5808431506156921, 0.8140147924423218, 2366.232421875, 5471.810546875)" x="-210.45" y="-443.95" width="420.9" height="887.91" style="fill:#88FF5F;" />
	<rect transform="matrix(0.9786290526390076, -0.20563305914402008, 0.20563305914402008, 0.9786290526390076, 2178.019287109375, 5125.20654296875)" x="-228.09" y="-481.16" width="456.18" height="962.33" style="fill:#88FF5F;" />
	<rect transform="matrix(0.7567301392555237, -0.653727650642395, 0.653727650642395, 0.7567301392555237, 2505.13427734375, 5747.11328125)" x="-241.92" y="-510.34" width="483.84" height="1020.67" style="fill:#88FF5F;" />
	<rect transform="matrix(0.9682579636573792, -0.2499508410692215, 0.2499508410692215, 0.9682579636573792, 1898.43896484375, 5008.8955078125)" x="-180.05" y="-314.82" width="360.1" height="629.63" style="fill:#88FF5F;" />
	<rect transform="matrix(-0.7925992012023926, 0.6097413897514343, 0.6097413897514343, 0.7925992012023926, 4907.30810546875, 5008.13818359375)" x="-1079.53" y="-294.64" width="2159.06" height="589.28" style="fill:#88FF5F;" />
	<rect transform="matrix(-0.7767794728279114, -0.6297712326049805, -0.6297712326049805, 0.7767794728279114, 5199.63232421875, 6176.80908203125)" x="-942.71" y="-333.76" width="1885.42" height="667.53" style="fill:#88FF5F;" />
	<rect transform="matrix(-0.7870022654533386, 0.6169485449790955, 0.6169485449790955, 0.7870022654533386, 4212.58056640625, 5565.6162109375)" x="-597.23" y="-211.4" width="1194.45" height="422.8" style="fill:#88FF5F;" />
	<rect transform="matrix(-0.9982802271842957, -0.05860607326030731, -0.05860607326030731, 0.9982802271842957, 5934.3056640625, 4168.9013671875)" x="-349.57" y="-70.12" width="699.14" height="140.24" style="fill:#88FF5F;" />
	<rect transform="matrix(-0.7601948976516724, 0.6496939063072205, 0.6496939063072205, 0.7601948976516724, 5975.4091796875, 4436.39697265625)" x="-381.79" y="-85.35" width="763.57" height="170.69" style="fill:#88FF5F;" />
	<rect transform="matrix(-0.849960207939148, 0.5268466472625732, 0.5268466472625732, 0.849960207939148, 6283.4755859375, 4268.109375)" x="-56.55" y="-23.78" width="113.1" height="47.55" style="fill:#88FF5F;" />
	<rect transform="matrix(-0.33642446994781494, 0.9417100548744202, 0.9417100548744202, 0.33642446994781494, 6298.845703125, 4202.88671875)" x="-40.39" y="-61.63" width="80.77" height="123.26" style="fill:#88FF5F;" />
	<rect transform="matrix(-0.0359056256711483, 0.9993547797203064, 0.9993547797203064, 0.0359056256711483, 6306.3095703125, 4181.89990234375)" x="-38.64" y="-48.45" width="77.28" height="96.89" style="fill:#88FF5F;" />
	<rect transform="matrix(-0.7978485226631165, 0.602857232093811, 0.602857232093811, 0.7978485226631165, 6365.14501953125, 4169.70556640625)" x="-23.25" y="-29.15" width="46.51" height="58.31" style="fill:#88FF5F;" />
	<rect transform="matrix(-0.9729198217391968, 0.23114024102687836, 0.23114024102687836, 0.9729198217391968, 5863.248046875, 4312.994140625)" x="-270.67" y="-127.67" width="541.34" height="255.34" style="fill:#88FF5F;" />
	<rect transform="matrix(0.593117892742157, -0.8051150441169739, 0.8051150441169739, 0.593117892742157, 3081.883544921875, 6407.01611328125)" x="-289.81" y="-373.17" width="579.62" height="746.35" style="fill:#88FF5F;" />
	<rect x="3452.63" y="4132.41" width="594.27" height="2881.98" style="fill:#88FF5F;" />
	<rect transform="matrix(0.0000000026982496237337728, -0.9999997615814209, 0.9999997615814209, 0.0000000026982496237337728, 3888.90185546875, 7097.15380859375)" x="-79.24" y="-158.48" width="158.48" height="316.97" style="fill:#88FF5F;" />
	<rect transform="matrix(-0.8814774751663208, -0.47222471237182617, 0.47222471237182617, -0.8814774751663208, 3719.72314453125, 7027.37841796875)" x="-299.9" y="-165.11" width="599.8" height="330.22" style="fill:#88FF5F;" />
	<rect transform="matrix(-0.9999994039535522, -0.0000000008540590457073449, 0.0000000008540590457073449, -0.9999994039535522, 3966.5625, 7176.39453125)" x="-94.64" y="-102.43" width="189.28" height="204.87" style="fill:#88FF5F;" />
	<rect transform="matrix(-0.9319624900817871, -0.36255258321762085, 0.36255258321762085, -0.9319624900817871, 3974.408203125, 7297.2275390625)" x="-58.05" y="-47.17" width="116.1" height="94.34" style="fill:#88FF5F;" />
	<rect transform="matrix(0.9319624900817871, 0.36255258321762085, 0.36255258321762085, -0.9319624900817871, 4026.91357421875, 7317.6533203125)" x="-20.06" y="-47.17" width="40.12" height="94.34" style="fill:#88FF5F;" />
	<rect transform="matrix(1, 0, 0, -1, 2086.514404296875, 2674.673828125)" x="-437.91" y="-123.24" width="875.82" height="246.47" style="fill:#88FF5F;" />
	<rect transform="matrix(0.8664394617080688, -0.4992818832397461, -0.4992818832397461, -0.8664394617080688, 2349.843505859375, 2642.330078125)" x="-576.84" y="-278.59" width="1153.67" height="557.18" style="fill:#88FF5F;" />
	<rect transform="matrix(0.9308875203132629, -0.36530548334121704, -0.36530548334121704, -0.9308875203132629, 2263.94677734375, 2535.3076171875)" x="-564.99" y="-272.87" width="1129.97" height="545.73" style="fill:#88FF5F;" />
	<rect transform="matrix(0.9308875203132629, -0.36530548334121704, -0.36530548334121704, -0.9308875203132629, 3023.996337890625, 2258.73974609375)" x="-1373.54" y="-252.67" width="2747.08" height="505.34" style="fill:#88FF5F;" />
	<rect transform="matrix(0.9308875203132629, -0.36530548334121704, -0.36530548334121704, -0.9308875203132629, 3451.082275390625, 2010.339111328125)" x="-773.69" y="-233.32" width="1547.38" height="466.64" style="fill:#88FF5F;" />
	<rect transform="matrix(0.894995927810669, -0.44607412815093994, -0.44607412815093994, -0.894995927810669, 3729.569091796875, 1847.269287109375)" x="-434.49" y="-233.32" width="868.97" height="466.64" style="fill:#88FF5F;" />
	<rect transform="matrix(0.875531017780304, 0.48316121101379395, 0.48316121101379395, -0.875531017780304, 4429.7919921875, 1969.52978515625)" x="-434.49" y="-279.42" width="868.97" height="558.84" style="fill:#88FF5F;" />
	<rect transform="matrix(0.8794395327568054, 0.4760098457336426, 0.4760098457336426, -0.8794395327568054, 4273.478515625, 1860.8818359375)" x="-434.49" y="-279.42" width="868.97" height="558.84" style="fill:#88FF5F;" />
	<rect transform="matrix(0.9146340489387512, 0.4042813777923584, 0.4042813777923584, -0.9146340489387512, 4877.32763671875, 2116.364990234375)" x="-324.04" y="-271.92" width="648.08" height="543.85" style="fill:#88FF5F;" />
	<rect transform="matrix(0.9146340489387512, 0.4042813777923584, 0.4042813777923584, -0.9146340489387512, 4861.2509765625, 2152.735595703125)" x="-324.04" y="-311.69" width="648.08" height="623.38" style="fill:#88FF5F;" />
	<rect transform="matrix(0.9146340489387512, 0.4042813777923584, 0.4042813777923584, -0.9146340489387512, 5426.91552734375, 2402.76708984375)" x="-942.5" y="-311.69" width="1885" height="623.38" style="fill:#88FF5F;" />
	<rect transform="matrix(0.9999994039535522, 0.0000000006830251919609509, 0.0000000006830251919609509, -0.9999994039535522, 5512.9072265625, 3589.9052734375)" x="-1000.29" y="-278.8" width="2000.58" height="557.6" style="fill:#88FF5F;" />
	<rect transform="matrix(0.9999994039535522, 0.0000000006830251919609509, 0.0000000006830251919609509, -0.9999994039535522, 4506.1259765625, 3593.2841796875)" x="-92.28" y="-282.18" width="184.55" height="564.35" style="fill:#88FF5F;" />
	<rect transform="matrix(0.5984612703323364, 0.8011510372161865, 0.8011510372161865, -0.5984612703323364, 4365.4892578125, 3472.3369140625)" x="-92.28" y="-145.88" width="184.55" height="291.76" style="fill:#88FF5F;" />
	<rect transform="matrix(0.5984612703323364, 0.8011510372161865, 0.8011510372161865, -0.5984612703323364, 4309.60302734375, 3693.537841796875)" x="-87.88" y="-185.47" width="175.76" height="370.95" style="fill:#88FF5F;" />
	<rect transform="matrix(-0.00641049537807703, 0.9999788403511047, 0.9999788403511047, 0.00641049537807703, 4248.3935546875, 3789.24169921875)" x="-92.66" y="-218.37" width="185.32" height="436.75" style="fill:#88FF5F;" />
	<rect transform="matrix(0.7009081840515137, 0.7132506370544434, 0.7132506370544434, -0.7009081840515137, 4129.494140625, 3677.6982421875)" x="-85.79" y="-202.19" width="171.58" height="404.37" style="fill:#88FF5F;" />
	<rect transform="matrix(0.6974770426750183, 0.7166063785552979, 0.7166063785552979, -0.6974770426750183, 3984.27099609375, 3752.020751953125)" x="-52.4" y="-110.91" width="104.81" height="221.81" style="fill:#88FF5F;" />
	<rect transform="matrix(0.4733400046825409, 0.8808792233467102, 0.8808792233467102, -0.4733400046825409, 4061.064697265625, 3637.77294921875)" x="-16.49" y="-34.89" width="32.98" height="69.79" style="fill:#88FF5F;" />
	<rect transform="matrix(-0.0018127580406144261, 0.9999977946281433, 0.9999977946281433, 0.0018127580406144261, 3944.476806640625, 3840.091552734375)" x="-41.39" y="-85.46" width="82.77" height="170.93" style="fill:#88FF5F;" />
	<rect transform="matrix(0.595482349395752, 0.803367555141449, 0.803367555141449, -0.595482349395752, 3873.30517578125, 3822.8212890625)" x="-28.42" y="-58.69" width="56.84" height="117.38" style="fill:#88FF5F;" />
	<rect transform="matrix(0.6761995553970337, 0.7367169857025146, 0.7367169857025146, -0.6761995553970337, 3903.4306640625, 3795.9833984375)" x="-32.75" y="-67.62" width="65.49" height="135.25" style="fill:#88FF5F;" />
	<rect transform="matrix(-0.29183948040008545, 0.9564664363861084, 0.9564664363861084, 0.29183948040008545, 3821.973876953125, 3864.77099609375)" x="-10.94" y="-17.06" width="21.88" height="34.12" style="fill:#88FF5F;" />
	<rect transform="matrix(-0.7473294138908386, 0.6644533276557922, 0.6644533276557922, 0.7473294138908386, 3812.6669921875, 3849.02392578125)" x="-8.22" y="-12.96" width="16.45" height="25.92" style="fill:#88FF5F;" />
	<rect transform="matrix(0.821080207824707, 0.5708119869232178, 0.5708119869232178, -0.821080207824707, 3798.839111328125, 3855.540283203125)" x="-7.71" y="-12.16" width="15.43" height="24.32" style="fill:#88FF5F;" />
	<rect transform="matrix(0.16913819313049316, 0.9855912923812866, 0.9855912923812866, -0.16913819313049316, 3813.84423828125, 3835.080078125)" x="-4.8" y="-6.14" width="9.6" height="12.28" style="fill:#88FF5F;" />
	<rect transform="matrix(0.7320945858955383, 0.6812008619308472, 0.6812008619308472, -0.7320945858955383, 3806.53466796875, 3841.289794921875)" x="-5.24" y="-6.7" width="10.48" height="13.4" style="fill:#88FF5F;" />
	<rect transform="matrix(0.9403014779090881, 0.34033820033073425, 0.34033820033073425, -0.9403014779090881, 3802.81201171875, 3861.685791015625)" x="-5.62" y="-7.19" width="11.24" height="14.37" style="fill:#88FF5F;" />
	<rect transform="matrix(0.9943690299987793, -0.10595937818288803, -0.10595937818288803, -0.9943690299987793, 3844.33740234375, 3875.500732421875)" x="-13.95" y="-6.11" width="27.89" height="12.22" style="fill:#88FF5F;" />
	<rect transform="matrix(0.999984622001648, -0.005292024463415146, -0.005292024463415146, -0.999984622001648, 3869.790771484375, 3876.962158203125)" x="-25.97" y="-4.65" width="51.93" height="9.3" style="fill:#88FF5F;" />
	<rect transform="matrix(0.999984622001648, -0.005292024463415146, -0.005292024463415146, -0.999984622001648, 3869.767578125, 3872.56298828125)" x="-25.97" y="-9.05" width="51.93" height="18.1" style="fill:#88FF5F;" />
	<rect transform="matrix(0.08065170794725418, 0.9967415928840637, 0.9967415928840637, -0.08065170794725418, 6119.20361328125, 2788.81298828125)" x="-289.61" y="-273.37" width="579.21" height="546.73" style="fill:#88FF5F;" />
	<rect transform="matrix(0.08065170794725418, 0.9967415928840637, 0.9967415928840637, -0.08065170794725418, 6189.228515625, 2784.31982421875)" x="-243.33" y="-273.37" width="486.66" height="546.73" style="fill:#88FF5F;" />
	<rect transform="matrix(-0.43804728984832764, 0.89895099401474, 0.89895099401474, 0.43804728984832764, 6413.7099609375, 2531.14990234375)" x="-29.15" y="-32.3" width="58.3" height="64.59" style="fill:#88FF5F;" />
	<rect transform="matrix(-0.43804728984832764, 0.89895099401474, 0.89895099401474, 0.43804728984832764, 6438.58984375, 3025.22314453125)" x="-38.63" y="-39.73" width="77.26" height="79.46" style="fill:#88FF5F;" />
	</g>
	<g id="Frame 22" clip-path="url(#mask_2)" />
</svg>