<?xml version="1.0" encoding="UTF-8"?>
<!-- Created with Grafika (https://www.grafika.cc/) -->
<svg xmlns="http://www.w3.org/2000/svg" xmlns:svg="http://www.w3.org/2000/svg" xmlns:xlink="http://www.w3.org/1999/xlink" width="1024" height="1024" viewBox="0 0 1024 1024" preserveAspectRatio="xMidYMid meet">
	<defs>
		<clipPath id="mask_1">
			<rect x="-459.17" y="-67.37" width="1375.5" height="1098.9" />
		</clipPath>
		<clipPath id="mask_2">
			<rect x="-1019.6" y="-1019.64" width="2039.19" height="2039.27" />
		</clipPath>
		<mask id="mask_3" mask-type="alpha">
			<rect x="-5783.2" y="-5537.49" width="11834.96" height="11834.96" style="fill:white;" />
		</mask>
		<mask id="mask_4" mask-type="alpha">
			<rect x="10217.65" y="2927.06" width="6248.22" height="6997.18" style="fill:white;" />
		</mask>
	</defs>
	<g id="Frame2" clip-path="url(#mask_1)">
		<rect x="-459.17" y="-67.37" width="1375.5" height="1098.9" fill="#000000" />
	</g>
	<g id="Canvas.svg2" transform="matrix(0.9995818138122559, -0.028898116201162338, 0.028898116201162338, 0.9995818138122559, -175.0947265625, 771.1550903320312)" clip-path="url(#mask_2)">
		<g id="Group2" transform="matrix(0.05886690691113472, -0.11343540251255035, 0.11343540251255035, 0.05886690691113472, -22.90178108215332, 1.158096432685852)">
			<g mask="url(#mask_3)" />
		</g>
		<rect transform="matrix(0.12778882682323456, -0.0017080047400668263, 0.0017080047400668263, 0.12778882682323456, 379.9870910644531, -295.54541015625)" x="-329.87" y="-1109.92" width="659.74" height="2219.84" style="fill:#88FF5F;" />
		<rect transform="matrix(0.07913138717412949, -0.10035493224859238, 0.10035493224859238, 0.07913138717412949, 523.2748413085938, 70.1644058227539)" x="-260.5" y="-578.7" width="521.01" height="1157.4" style="fill:#88FF5F;" />
		<rect transform="matrix(0.09036839008331299, -0.09036839008331299, 0.09036839008331299, 0.09036839008331299, 456.051025390625, 8.295185089111328)" x="-271.57" y="-324.56" width="543.15" height="649.12" style="fill:#88FF5F;" />
		<rect transform="matrix(0.09120162576436996, -0.0895274206995964, 0.0895274206995964, 0.09120162576436996, 452.1313171386719, -8.821124076843262)" x="-271.57" y="-324.56" width="543.15" height="649.12" style="fill:#88FF5F;" />
		<rect transform="matrix(0.09634766727685928, -0.08396434783935547, 0.08396434783935547, 0.09634766727685928, 435.64923095703125, -14.676127433776855)" x="-271.57" y="-324.56" width="543.15" height="649.12" style="fill:#88FF5F;" />
		<rect transform="matrix(0.09634766727685928, -0.08396434783935547, 0.08396434783935547, 0.09634766727685928, 435.64923095703125, -14.676127433776855)" x="-271.57" y="-324.56" width="543.15" height="649.12" style="fill:#88FF5F;" />
		<rect transform="matrix(0.12208502739667892, -0.03779061138629913, 0.03779061138629913, 0.12208502739667892, 395.5368347167969, -105.4400863647461)" x="-271.57" y="-609.88" width="543.15" height="1219.76" style="fill:#88FF5F;" />
		<rect transform="matrix(0.12205918878316879, -0.03787383437156677, 0.03787383437156677, 0.12205918878316879, 383.4989013671875, -114.97856903076172)" x="-275.62" y="-362.71" width="551.23" height="725.41" style="fill:#88FF5F;" />
		<rect transform="matrix(0.11141648143529892, -0.06260386109352112, 0.06260386109352112, 0.11141648143529892, 395.8005065917969, -51.957454681396484)" x="-171.94" y="-362.71" width="343.88" height="725.41" style="fill:#88FF5F;" />
		<rect transform="matrix(0.10403130203485489, -0.07423190027475357, 0.07423190027475357, 0.10403130203485489, 428.6435852050781, -60.74873352050781)" x="-209.55" y="-442.06" width="419.11" height="884.13" style="fill:#88FF5F;" />
		<rect transform="matrix(0.1250690370798111, -0.026279957965016365, 0.026279957965016365, 0.1250690370798111, 404.6921691894531, -104.85578155517578)" x="-227.12" y="-479.11" width="454.24" height="958.23" style="fill:#88FF5F;" />
		<rect transform="matrix(0.09671030193567276, -0.08354656398296356, 0.08354656398296356, 0.09671030193567276, 446.3187561035156, -25.71590232849121)" x="-240.89" y="-508.16" width="481.78" height="1016.32" style="fill:#88FF5F;" />
		<rect transform="matrix(0.12374361604452133, -0.03194378316402435, 0.03194378316402435, 0.12374361604452133, 369.11370849609375, -119.65814971923828)" x="-179.28" y="-313.47" width="358.57" height="626.95" style="fill:#88FF5F;" />
		<rect transform="matrix(-0.1012943908572197, 0.07792510837316513, 0.07792510837316513, 0.1012943908572197, 752.0092163085938, -119.75395202636719)" x="-1074.93" y="-293.38" width="2149.86" height="586.77" style="fill:#88FF5F;" />
		<rect transform="matrix(-0.09927261620759964, -0.08048492670059204, -0.08048492670059204, 0.09927261620759964, 789.2081298828125, 28.966373443603516)" x="-938.69" y="-332.34" width="1877.38" height="664.68" style="fill:#88FF5F;" />
		<rect transform="matrix(-0.10057909786701202, 0.07884617894887924, 0.07884617894887924, 0.10057909786701202, 663.6011352539062, -48.812225341796875)" x="-594.68" y="-210.5" width="1189.36" height="421" style="fill:#88FF5F;" />
		<rect transform="matrix(-0.127580463886261, -0.007489871233701706, -0.007489871233701706, 0.127580463886261, 882.6998901367188, -226.5516357421875)" x="-348.08" y="-69.82" width="696.16" height="139.64" style="fill:#88FF5F;" />
		<rect transform="matrix(-0.09715310484170914, 0.0830310508608818, 0.0830310508608818, 0.09715310484170914, 887.9306030273438, -192.51205444335938)" x="-380.16" y="-84.98" width="760.32" height="169.96" style="fill:#88FF5F;" />
		<rect transform="matrix(-0.108625128865242, 0.06733114272356033, 0.06733114272356033, 0.108625128865242, 927.1336059570312, -213.9274139404297)" x="-56.31" y="-23.67" width="112.62" height="47.35" style="fill:#88FF5F;" />
		<rect transform="matrix(-0.04299513250589371, 0.12035078555345535, 0.12035078555345535, 0.04299513250589371, 929.0904541015625, -222.2273406982422)" x="-40.21" y="-61.37" width="80.43" height="122.73" style="fill:#88FF5F;" />
		<rect transform="matrix(-0.004588748328387737, 0.12771780788898468, 0.12771780788898468, 0.004588748328387737, 930.0391845703125, -224.89743041992188)" x="-38.48" y="-48.24" width="76.95" height="96.48" style="fill:#88FF5F;" />
		<rect transform="matrix(-0.10196524858474731, 0.07704530656337738, 0.07704530656337738, 0.10196524858474731, 937.5267944335938, -226.4483184814453)" x="-23.16" y="-29.03" width="46.31" height="58.06" style="fill:#88FF5F;" />
		<rect transform="matrix(-0.12433940172195435, 0.02953978069126606, 0.02953978069126606, 0.12433940172195435, 873.6578979492188, -208.2149658203125)" x="-269.52" y="-127.13" width="539.03" height="254.25" style="fill:#88FF5F;" />
		<rect transform="matrix(0.07580062001943588, -0.10289391130208969, 0.10289391130208969, 0.07580062001943588, 519.714111328125, 58.26129913330078)" x="-288.57" y="-371.58" width="577.15" height="743.17" style="fill:#88FF5F;" />
		<rect transform="matrix(0.12780025601387024, 0, 0, 0.12780025601387024, 604.7047119140625, -47.82148361206055)" x="-295.87" y="-1434.85" width="591.74" height="2869.7" style="fill:#88FF5F;" />
		<rect transform="matrix(0.0000000003448369922942618, -0.12780022621154785, 0.12780022621154785, 0.0000000003448369922942618, 622.4117431640625, 146.08494567871094)" x="-78.9" y="-157.81" width="157.8" height="315.62" style="fill:#88FF5F;" />
		<rect transform="matrix(-0.11265304684638977, -0.060350436717271805, 0.060350436717271805, -0.11265304684638977, 600.8821411132812, 137.2057342529297)" x="-298.62" y="-164.41" width="597.24" height="328.81" style="fill:#88FF5F;" />
		<rect transform="matrix(-0.12780018150806427, -0.0000000001091489676419144, 0.0000000001091489676419144, -0.12780018150806427, 632.293701171875, 156.16827392578125)" x="-94.24" y="-102" width="188.47" height="204" style="fill:#88FF5F;" />
		<rect transform="matrix(-0.11910504847764969, -0.04633431136608124, 0.04633431136608124, -0.11910504847764969, 633.292724609375, 171.54541015625)" x="-57.8" y="-46.97" width="115.61" height="93.94" style="fill:#88FF5F;" />
		<rect transform="matrix(0.11910504847764969, 0.04633431136608124, 0.04633431136608124, -0.11910504847764969, 639.9739379882812, 174.14479064941406)" x="-19.97" y="-46.97" width="39.95" height="93.94" style="fill:#88FF5F;" />
		<rect transform="matrix(0.12780025601387024, 0, 0, -0.12780025601387024, 393.04754638671875, -416.6995544433594)" x="-436.04" y="-122.71" width="872.09" height="245.42" style="fill:#88FF5F;" />
		<rect transform="matrix(0.11073119193315506, -0.06380835920572281, -0.06380835920572281, -0.11073119193315506, 426.5569152832031, -420.81573486328125)" x="-574.38" y="-277.4" width="1148.75" height="554.81" style="fill:#88FF5F;" />
		<rect transform="matrix(0.11896767467260361, -0.04668613523244858, -0.04668613523244858, -0.11896767467260361, 415.6263122558594, -434.43450927734375)" x="-562.58" y="-271.7" width="1125.15" height="543.4" style="fill:#88FF5F;" />
		<rect transform="matrix(0.11896767467260361, -0.04668613523244858, -0.04668613523244858, -0.11896767467260361, 512.347412109375, -469.6306457519531)" x="-1367.69" y="-251.59" width="2735.37" height="503.19" style="fill:#88FF5F;" />
		<rect transform="matrix(0.11896767467260361, -0.04668613523244858, -0.04668613523244858, -0.11896767467260361, 566.6961059570312, -501.2408752441406)" x="-770.39" y="-232.33" width="1540.78" height="464.65" style="fill:#88FF5F;" />
		<rect transform="matrix(0.11438071727752686, -0.05700838938355446, -0.05700838938355446, -0.11438071727752686, 602.134765625, -521.9922485351562)" x="-432.63" y="-232.33" width="865.27" height="464.65" style="fill:#88FF5F;" />
		<rect transform="matrix(0.11189308762550354, 0.06174812465906143, 0.06174812465906143, -0.11189308762550354, 691.2417602539062, -506.43487548828125)" x="-432.63" y="-278.23" width="865.27" height="556.46" style="fill:#88FF5F;" />
		<rect transform="matrix(0.1123925969004631, 0.06083418056368828, 0.06083418056368828, -0.1123925969004631, 671.3500366210938, -520.2604370117188)" x="-432.63" y="-278.23" width="865.27" height="556.46" style="fill:#88FF5F;" />
		<rect transform="matrix(0.11689046770334244, 0.051667261868715286, 0.051667261868715286, -0.11689046770334244, 748.1940307617188, -487.7488098144531)" x="-322.66" y="-270.77" width="645.32" height="541.53" style="fill:#88FF5F;" />
		<rect transform="matrix(0.11689046770334244, 0.051667261868715286, 0.051667261868715286, -0.11689046770334244, 746.14794921875, -483.1198425292969)" x="-322.66" y="-310.36" width="645.32" height="620.72" style="fill:#88FF5F;" />
		<rect transform="matrix(0.11689046770334244, 0.051667261868715286, 0.051667261868715286, -0.11689046770334244, 818.132080078125, -451.3017272949219)" x="-938.48" y="-310.36" width="1876.97" height="620.72" style="fill:#88FF5F;" />
		<rect transform="matrix(0.12780018150806427, 0.00000000008729079958857966, 0.00000000008729079958857966, -0.12780018150806427, 829.074951171875, -300.2320556640625)" x="-996.03" y="-277.61" width="1992.05" height="555.22" style="fill:#88FF5F;" />
		<rect transform="matrix(0.12780018150806427, 0.00000000008729079958857966, 0.00000000008729079958857966, -0.12780018150806427, 700.9556884765625, -299.80145263671875)" x="-91.88" y="-280.97" width="183.76" height="561.94" style="fill:#88FF5F;" />
		<rect transform="matrix(0.07648350298404694, 0.10238730907440186, 0.10238730907440186, -0.07648350298404694, 683.058837890625, -315.1938781738281)" x="-91.88" y="-145.26" width="183.76" height="290.52" style="fill:#88FF5F;" />
		<rect transform="matrix(0.07648350298404694, 0.10238730907440186, 0.10238730907440186, -0.07648350298404694, 675.9479370117188, -287.0445251464844)" x="-87.51" y="-184.68" width="175.01" height="369.37" style="fill:#88FF5F;" />
		<rect transform="matrix(-0.0008192628738470376, 0.12779755890369415, 0.12779755890369415, 0.0008192628738470376, 668.1592407226562, -274.865478515625)" x="-92.27" y="-217.44" width="184.53" height="434.89" style="fill:#88FF5F;" />
		<rect transform="matrix(0.08957624435424805, 0.09115361422300339, 0.09115361422300339, -0.08957624435424805, 653.0274047851562, -289.0595397949219)" x="-85.42" y="-201.32" width="170.85" height="402.65" style="fill:#88FF5F;" />
		<rect transform="matrix(0.08913774788379669, 0.09158247709274292, 0.09158247709274292, -0.08913774788379669, 634.547607421875, -279.60101318359375)" x="-52.18" y="-110.43" width="104.36" height="220.86" style="fill:#88FF5F;" />
		<rect transform="matrix(0.06049297749996185, 0.11257658898830414, 0.11257658898830414, -0.06049297749996185, 644.3201293945312, -294.1410217285156)" x="-16.42" y="-34.75" width="32.84" height="69.49" style="fill:#88FF5F;" />
		<rect transform="matrix(-0.00023167092876974493, 0.12779997289180756, 0.12779997289180756, 0.00023167092876974493, 629.484130859375, -268.39495849609375)" x="-41.21" y="-85.1" width="82.42" height="170.2" style="fill:#88FF5F;" />
		<rect transform="matrix(0.07610278576612473, 0.1026705801486969, 0.1026705801486969, -0.07610278576612473, 620.4262084960938, -270.5921630859375)" x="-28.3" y="-58.44" width="56.6" height="116.88" style="fill:#88FF5F;" />
		<rect transform="matrix(0.08641847968101501, 0.09415262192487717, 0.09415262192487717, -0.08641847968101501, 624.2597045898438, -274.0083312988281)" x="-32.61" y="-67.34" width="65.21" height="134.67" style="fill:#88FF5F;" />
		<rect transform="matrix(-0.03729715943336487, 0.12223666161298752, 0.12223666161298752, 0.03729715943336487, 613.8942260742188, -265.25372314453125)" x="-10.89" y="-16.99" width="21.79" height="33.97" style="fill:#88FF5F;" />
		<rect transform="matrix(-0.0955088883638382, 0.08491730690002441, 0.08491730690002441, 0.0955088883638382, 612.7094116210938, -267.2572937011719)" x="-8.19" y="-12.9" width="16.38" height="25.81" style="fill:#88FF5F;" />
		<rect transform="matrix(0.10493426769971848, 0.07294991612434387, 0.07294991612434387, -0.10493426769971848, 610.9505004882812, -266.4283142089844)" x="-7.68" y="-12.11" width="15.36" height="24.22" style="fill:#88FF5F;" />
		<rect transform="matrix(0.021615903824567795, 0.12595881521701813, 0.12595881521701813, -0.021615903824567795, 612.859619140625, -269.0323181152344)" x="-4.78" y="-6.11" width="9.56" height="12.23" style="fill:#88FF5F;" />
		<rect transform="matrix(0.09356187283992767, 0.08705764263868332, 0.08705764263868332, -0.09356187283992767, 611.9290161132812, -268.2420959472656)" x="-5.22" y="-6.67" width="10.44" height="13.34" style="fill:#88FF5F;" />
		<rect transform="matrix(0.12017077207565308, 0.0434953048825264, 0.0434953048825264, -0.12017077207565308, 611.4555053710938, -265.6458435058594)" x="-5.6" y="-7.15" width="11.19" height="14.31" style="fill:#88FF5F;" />
		<rect transform="matrix(0.12708061933517456, -0.013541636057198048, -0.013541636057198048, -0.12708061933517456, 616.7392578125, -263.88836669921875)" x="-13.89" y="-6.08" width="27.77" height="12.17" style="fill:#88FF5F;" />
		<rect transform="matrix(0.12779828906059265, -0.0006763221463188529, -0.0006763221463188529, -0.12779828906059265, 619.9781494140625, -263.70245361328125)" x="-25.85" y="-4.63" width="51.71" height="9.26" style="fill:#88FF5F;" />
		<rect transform="matrix(0.12779828906059265, -0.0006763221463188529, -0.0006763221463188529, -0.12779828906059265, 619.97509765625, -264.26220703125)" x="-25.85" y="-9.01" width="51.71" height="18.02" style="fill:#88FF5F;" />
		<rect transform="matrix(0.010307309217751026, 0.12738382816314697, 0.12738382816314697, -0.010307309217751026, 906.2282104492188, -402.17608642578125)" x="-288.37" y="-272.2" width="576.74" height="544.4" style="fill:#88FF5F;" />
		<rect transform="matrix(0.010307309217751026, 0.12738382816314697, 0.12738382816314697, -0.010307309217751026, 915.13916015625, -402.7474670410156)" x="-242.29" y="-272.2" width="484.59" height="544.4" style="fill:#88FF5F;" />
		<rect transform="matrix(-0.0559825524687767, 0.11488616466522217, 0.11488616466522217, 0.0559825524687767, 943.706298828125, -434.96490478515625)" x="-29.03" y="-32.16" width="58.05" height="64.31" style="fill:#88FF5F;" />
		<rect transform="matrix(-0.0559825524687767, 0.11488616466522217, 0.11488616466522217, 0.0559825524687767, 946.8729248046875, -372.09075927734375)" x="-38.47" y="-39.56" width="76.93" height="79.12" style="fill:#88FF5F;" />
		<g id="Group 12" transform="matrix(0.12780025601387024, 0, 0, 0.12780025601387024, -1026.8065185546875, -1035.127685546875)">
			<g mask="url(#mask_4)" />
		</g>
	</g>
</svg>